PathFileType  4	(X/Y/Z) C:\Users\antoi\Documents\MyRepositories\mobilecap\ResultsAnalysis
DataRate	CameraRate	NumFrames	NumMarkers	Units	OrigDataRate	OrigDataStartFrame	OrigNumFrames
100.0	100.0	6	51	mm	100.0	93	247
Frame#	Time	r_knee			r_shank_antsup			r_ankle			r_calc			r_5meta			r_toe			L_knee			L_shank_antsup			L_ankle			L_calc			L_5meta			L_toe			r_sh2			r_sh3			r_sh4			L_sh2			L_sh3			r_thigh1			r_thigh2			r_thigh3			r_thigh4			r_thigh5			L_thigh1			L_thigh2			L_thigh3			L_thigh4			r.ASIS			r.PSIS			L.ASIS			L.PSIS			C7			R_Shoulder			L_Shoulder			R_Sternum			L_Sternum			R_humerus			R_elbow_med			R_elbow_lat			R_forearm			R_wrist_radius			R_wrist_ulna			L_humerus			L_elbow_med			L_elbow_lat			L_forearm			L_wrist_radius			L_wrist_ulna			R_HJC			L_HJC			R_HJC_reg			L_HJC_reg			
		X1	Y1	Z1	X2	Y2	Z2	X3	Y3	Z3	X4	Y4	Z4	X5	Y5	Z5	X6	Y6	Z6	X7	Y7	Z7	X8	Y8	Z8	X9	Y9	Z9	X10	Y10	Z10	X11	Y11	Z11	X12	Y12	Z12	X13	Y13	Z13	X14	Y14	Z14	X15	Y15	Z15	X16	Y16	Z16	X17	Y17	Z17	X18	Y18	Z18	X19	Y19	Z19	X20	Y20	Z20	X21	Y21	Z21	X22	Y22	Z22	X23	Y23	Z23	X24	Y24	Z24	X25	Y25	Z25	X26	Y26	Z26	X27	Y27	Z27	X28	Y28	Z28	X29	Y29	Z29	X30	Y30	Z30	X31	Y31	Z31	X32	Y32	Z32	X33	Y33	Z33	X34	Y34	Z34	X35	Y35	Z35	X36	Y36	Z36	X37	Y37	Z37	X38	Y38	Z38	X39	Y39	Z39	X40	Y40	Z40	X41	Y41	Z41	X42	Y42	Z42	X43	Y43	Z43	X44	Y44	Z44	X45	Y45	Z45	X46	Y46	Z46	X47	Y47	Z47	X48	Y48	Z48	X49	Y49	Z49	X50	Y50	Z50	X51	Y51	Z51	

93	0.92000000	-607.84463	1011.74610	-360.98611	-640.25948	868.81139	-351.33692	-887.01273	597.19036	-337.07503	-940.25588	614.28407	-405.44701	-836.12374	456.78467	-303.76324	-784.23947	450.73433	-349.18274	-638.79039	1003.66557	-790.11398	-676.97903	811.54275	-775.65125	-907.61501	610.63896	-758.97966	-947.91576	634.82077	-682.14429	-911.09945	450.76426	-804.26324	-849.80193	428.39592	-760.85506	-701.33312	772.52692	-349.04147	-699.07863	904.54322	-321.84085	-762.89476	814.54414	-310.01569	-737.61416	859.17567	-817.64659	-806.86579	764.45632	-798.41425	-693.62715	1288.97322	-358.53229	-630.40694	1197.13819	-350.40948	-671.56991	1142.31945	-340.96253	-785.95589	1227.99740	-381.25063	-720.70114	1129.02358	-364.72183	-687.98585	1295.18967	-781.52668	-630.27137	1173.16842	-790.83707	-789.58943	1253.61354	-786.61864	-729.35406	1129.96962	-806.28752	-716.84927	1518.70428	-444.28884	-895.59400	1576.48969	-528.72090	-732.49834	1504.93504	-711.71354	-898.00884	1576.21993	-620.33069	-689.36215	2031.93448	-601.93633	-603.89325	1999.38551	-452.71874	-622.96724	2011.75387	-749.00526	-574.11802	1917.91501	-575.17209	-574.86221	1913.89308	-621.62329	-646.44754	1827.39681	-253.35926	-757.67319	1721.09572	-194.63731	-718.86031	1789.72402	-150.12006	-535.46997	1730.00062	-240.19348	-466.96364	1704.54207	-288.78016	-458.54171	1690.76777	-253.49644	-610.87574	1767.35648	-895.89071	-704.97471	1668.65857	-912.67787	-655.97924	1705.82247	-972.81549	-483.31131	1717.36391	-865.92712	-434.12837	1723.27879	-813.19630	-420.69477	1709.65568	-841.21928	-811.22985	1436.94336	-472.83157	-824.98717	1431.73541	-669.75913	-801.98446	1442.18555	-479.90740	-806.65468	1441.66873	-656.88022	
94	0.93000000	-596.50079	1010.86669	-358.77064	-624.05782	866.52029	-349.10586	-860.54875	585.63281	-333.25856	-915.28501	600.39078	-401.07631	-802.92174	447.80700	-300.52682	-751.44842	444.12794	-346.52703	-626.76236	1003.09169	-791.92966	-658.52918	809.30070	-778.32816	-882.09583	599.99696	-762.18011	-922.59978	622.84332	-685.02396	-881.17452	439.70611	-806.84568	-818.57681	419.64610	-764.52773	-681.39170	768.31849	-346.18471	-683.81587	900.06775	-319.16453	-743.52767	806.21995	-306.94478	-720.68090	854.69374	-820.55562	-786.48308	757.50431	-801.55347	-685.53895	1287.51745	-357.66059	-621.40250	1196.11710	-348.88284	-662.28139	1140.95361	-339.80500	-777.19862	1225.67424	-380.75134	-711.25917	1127.21387	-363.69110	-679.44517	1294.23487	-782.83351	-620.43750	1172.79727	-792.35629	-780.59695	1251.62176	-787.11274	-719.31660	1128.52231	-807.00549	-708.52849	1515.25741	-444.03862	-887.18663	1573.78000	-528.55596	-723.62447	1501.61900	-711.05525	-889.41458	1573.64862	-619.78830	-676.16666	2027.79795	-601.85499	-590.09301	1993.46431	-451.51635	-607.60657	2006.71773	-749.50347	-562.53111	1912.42933	-574.85767	-562.92970	1908.72890	-620.65216	-641.97068	1827.51652	-249.98111	-758.68474	1727.54912	-189.21112	-717.34452	1795.87629	-146.83012	-536.09937	1723.90642	-232.80805	-468.31178	1694.07038	-279.39434	-460.78439	1680.95307	-243.16687	-608.00382	1762.87657	-897.91509	-707.11221	1668.39423	-912.36884	-658.05353	1703.78710	-973.53523	-482.96590	1707.59812	-870.26682	-431.69799	1711.59189	-819.40371	-419.89134	1697.21039	-847.37521	-803.22676	1433.88028	-472.48587	-816.68778	1428.82524	-669.43800	-793.82676	1439.04819	-479.84974	-798.14510	1438.79757	-656.53819	
95	0.94000000	-585.89503	1008.59445	-356.52407	-608.23485	862.84027	-346.98365	-833.32795	572.32350	-329.48851	-889.65235	584.79089	-396.39514	-768.77020	437.66182	-297.47540	-717.62489	436.57115	-344.29592	-615.63933	1001.03094	-793.78627	-640.68981	805.50088	-780.93068	-855.76697	587.24987	-765.54361	-896.84260	608.39628	-688.18403	-848.98950	427.16455	-810.44642	-785.44630	409.67578	-768.44816	-661.42309	762.75563	-343.20070	-668.63233	893.90481	-315.96329	-723.99967	796.80856	-303.67888	-704.45417	848.39500	-823.38160	-766.34556	748.65404	-804.53339	-677.61074	1284.81931	-357.03105	-612.97538	1193.86519	-347.36686	-653.55299	1138.31655	-338.88084	-768.79649	1222.37848	-380.36663	-702.33921	1124.27390	-362.91174	-671.06073	1292.07164	-783.88089	-611.14895	1170.97301	-793.71833	-771.86761	1248.59491	-787.57082	-709.86467	1125.91581	-807.44649	-700.74534	1510.76647	-444.05814	-878.48308	1570.30271	-528.28231	-714.49377	1497.07589	-709.92643	-880.49763	1570.31686	-619.36279	-662.83944	2023.08092	-601.76272	-576.26413	1986.90019	-450.47602	-592.29519	2000.67758	-749.82672	-551.22324	1906.10397	-574.89127	-551.03438	1902.76381	-619.85132	-637.02080	1826.96173	-247.56722	-759.46444	1734.66992	-185.97571	-715.39533	1801.57559	-144.41745	-537.03121	1717.21869	-225.40718	-469.84715	1682.91748	-269.24786	-463.72656	1670.20798	-232.80200	-605.28628	1758.24004	-899.88428	-709.84858	1668.71112	-911.66645	-660.20601	1701.87717	-973.90442	-482.77181	1697.29975	-874.79892	-430.17535	1698.90186	-825.18396	-419.70433	1684.04645	-853.58643	-795.60410	1429.92452	-472.04299	-808.44017	1424.95779	-669.03922	-785.90160	1435.18848	-479.97803	-789.78935	1435.21397	-655.87495	
96	0.95000000	-575.90291	1004.94031	-354.16741	-592.58555	857.81299	-344.88626	-805.48150	557.84361	-325.58319	-863.45031	567.77805	-391.42129	-733.93346	426.73210	-294.62303	-683.31401	428.23971	-342.31180	-605.38768	997.41703	-795.70550	-623.26520	800.36166	-783.58055	-828.81546	572.82684	-769.12728	-870.76754	591.84475	-691.62869	-814.91839	413.37548	-814.52469	-750.84367	399.09687	-772.65734	-641.54383	755.79375	-340.22948	-653.55215	886.25812	-312.48095	-705.16514	787.51867	-299.72807	-688.66898	840.41022	-826.08322	-746.31525	738.13013	-807.44365	-669.86996	1280.72260	-356.37688	-605.21401	1190.26196	-345.83680	-645.38854	1134.43972	-337.90818	-760.65058	1218.09501	-380.02029	-693.85158	1120.19904	-362.38661	-662.76941	1288.63545	-784.75206	-602.39401	1167.68327	-794.92499	-763.41489	1244.49649	-787.79605	-700.86673	1122.19221	-808.03028	-693.08389	1505.39222	-444.14718	-869.43178	1566.04732	-528.27769	-705.15779	1491.72393	-708.78403	-871.18198	1566.18126	-619.28941	-649.24326	2017.51937	-601.63666	-562.61601	1979.69038	-449.47599	-577.16865	1993.71955	-749.92622	-539.62723	1899.28276	-574.53086	-539.01555	1895.99163	-619.20201	-631.57242	1825.80090	-245.60145	-759.65814	1741.93594	-184.72040	-712.95046	1806.60670	-142.88970	-538.09908	1710.04813	-217.72187	-471.45475	1670.87415	-258.74436	-467.44851	1658.62601	-222.41770	-602.80029	1753.37282	-901.62392	-712.32521	1669.00208	-910.59833	-662.27199	1700.11126	-974.01768	-482.47359	1686.64495	-879.56239	-429.39947	1685.46290	-830.77543	-420.11904	1670.31983	-859.78888	-788.02019	1425.14664	-471.79175	-799.95710	1420.30327	-668.84743	-777.99775	1430.62767	-480.19324	-781.36472	1430.88480	-655.23543	
97	0.96000000	-566.45031	999.76793	-351.94284	-577.01648	851.29476	-342.96268	-777.18420	542.64388	-321.37983	-836.82249	549.72975	-386.21846	-698.68376	415.33351	-291.92897	-649.05708	419.41792	-340.51926	-595.96615	992.21589	-797.51244	-606.11807	793.99706	-786.20172	-801.39675	557.17314	-772.94593	-844.42669	573.64820	-695.28242	-779.31952	398.95240	-819.32739	-715.12319	388.11077	-777.09516	-621.81985	747.62094	-337.50914	-638.61695	877.30044	-309.03372	-686.21908	777.11251	-295.44187	-673.10034	831.01222	-828.73564	-726.23247	726.17872	-810.39810	-662.19813	1275.43555	-355.49750	-597.70906	1185.14903	-344.42332	-637.63455	1129.30954	-336.75882	-752.65445	1212.87605	-379.56663	-685.82978	1114.98471	-361.73786	-654.48200	1283.81658	-785.43861	-593.91838	1162.94667	-796.08053	-755.09868	1239.35171	-787.87594	-692.30540	1117.27583	-808.62390	-685.20719	1499.25322	-444.15864	-860.03628	1561.07709	-528.32859	-695.67813	1485.46153	-707.71060	-861.49342	1561.24654	-619.40943	-635.48515	2010.91930	-601.43318	-549.15782	1971.75604	-448.33322	-562.14003	1985.87937	-749.95370	-527.56863	1891.92176	-573.73045	-526.92505	1888.40334	-618.52120	-625.83686	1824.12764	-243.82585	-759.24449	1748.74612	-184.66291	-710.05405	1810.82103	-142.06622	-539.49063	1702.08229	-210.15820	-473.62433	1658.06000	-248.49777	-472.02192	1646.37041	-212.25734	-600.47471	1748.21041	-903.12461	-714.03693	1668.97308	-909.44935	-664.12853	1698.35267	-973.94445	-482.47416	1675.63367	-884.21418	-428.97824	1671.51387	-836.48593	-420.94544	1656.22694	-866.09900	-780.26890	1419.65047	-471.53876	-791.27931	1414.80675	-668.64844	-769.98401	1425.33585	-480.31526	-772.77356	1425.66080	-654.61211	
98	0.97000000	-557.41514	993.12104	-349.94768	-561.85445	843.42231	-341.44296	-748.61336	526.75601	-317.26439	-809.83194	530.95495	-380.92609	-663.35774	403.62334	-289.27641	-615.13518	410.31259	-338.78174	-587.19649	985.50740	-799.06561	-589.32579	786.37956	-788.51109	-773.55861	540.49082	-776.89619	-817.70466	554.17565	-699.12358	-742.67999	384.32550	-824.83530	-678.42181	376.72931	-781.76653	-602.36657	738.64085	-335.06769	-623.88850	867.19159	-305.83540	-666.51140	764.81935	-291.49083	-657.70259	820.43471	-831.38411	-706.03893	713.06519	-813.52599	-654.43838	1269.10710	-354.68325	-590.11953	1178.65758	-343.19140	-630.06201	1122.96610	-335.57143	-744.75282	1206.56761	-379.04552	-678.19973	1108.57077	-360.64449	-646.12596	1277.60923	-785.95671	-585.52579	1156.76059	-797.16932	-746.76463	1233.17809	-788.01872	-684.12552	1111.12995	-809.09450	-676.95264	1492.41892	-443.95381	-850.36198	1555.24143	-528.39761	-686.15262	1478.37127	-706.92953	-851.51672	1555.44654	-619.47378	-621.87289	2003.35681	-601.22089	-535.69152	1962.98656	-447.18036	-547.14555	1977.05897	-750.01857	-515.39323	1883.64127	-573.06057	-514.91080	1880.03431	-617.77812	-620.07987	1821.87866	-242.31967	-758.38832	1754.56057	-184.93721	-706.72876	1814.10163	-141.83346	-541.41258	1693.42208	-202.99192	-477.13700	1644.86334	-238.85138	-477.55374	1633.66775	-202.57670	-597.98907	1742.77970	-904.69713	-715.25897	1668.87270	-908.39431	-665.61530	1696.44444	-973.70996	-483.14988	1664.01378	-888.63046	-428.90525	1656.98642	-842.23575	-422.05144	1641.75732	-872.44841	-772.15177	1413.38884	-471.25532	-782.39184	1408.45725	-668.40444	-761.72149	1419.04436	-480.30860	-763.92595	1419.43609	-654.21149	
